<?xml version="1.0" encoding="utf-8"?>
<svg width="177px" height="138px" viewBox="0 0 177 138" version="1.1" xmlns:xlink="http://www.w3.org/1999/xlink" xmlns="http://www.w3.org/2000/svg">
  <defs>
    <path d="M0 0L176.817 0L176.817 137.564L0 137.564L0 0Z" id="path_1" />
    <clipPath id="mask_1">
      <use xlink:href="#path_1" />
    </clipPath>
  </defs>
  <g id="mastercard-2">
    <path d="M0 0L176.817 0L176.817 137.564L0 137.564L0 0Z" id="Background" fill="none" fill-rule="evenodd" stroke="none" />
    <g clip-path="url(#mask_1)">
      <path d="M29.0511 13.0846C29.0511 10.534 30.722 8.43872 33.453 8.43872C36.0628 8.43872 37.8239 10.4438 37.8239 13.0846C37.8239 15.7254 36.0628 17.7305 33.453 17.7305C30.722 17.7305 29.0511 15.6352 29.0511 13.0846M40.7989 13.0845L40.7989 5.8262L37.6436 5.8262L37.6436 7.59437C36.6428 6.28769 35.1248 5.46814 33.0604 5.46814C28.9936 5.46814 25.8021 8.65792 25.8021 13.0881C25.8021 17.5182 28.9919 20.708 33.0604 20.708C35.1239 20.708 36.6428 19.8876 37.6436 18.5818L37.6436 20.3438L40.7953 20.3438L40.7953 13.0845L40.7989 13.0845ZM147.413 13.0846C147.413 10.534 149.084 8.43872 151.815 8.43872C154.428 8.43872 156.186 10.4438 156.186 13.0846C156.186 15.7254 154.428 17.7305 151.815 17.7305C149.085 17.7305 147.413 15.6352 147.413 13.0846M159.164 13.0845L159.164 0L156.006 0L156.006 7.59431C155.005 6.28762 153.487 5.46807 151.423 5.46807C147.356 5.46807 144.165 8.65786 144.165 13.088C144.165 17.5182 147.354 20.708 151.423 20.708C153.487 20.708 155.005 19.8875 156.006 18.5817L156.006 20.3437L159.164 20.3437L159.164 13.0845L159.164 13.0845ZM79.9604 8.28918C81.9938 8.28918 83.2996 9.56404 83.6329 11.8087L76.104 11.8087C76.4408 9.71346 77.713 8.28918 79.9613 8.28918M80.024 5.4601C75.7716 5.4601 72.7966 8.55441 72.7966 13.0801C72.7966 17.6941 75.8909 20.7 80.2353 20.7C82.4208 20.7 84.4224 20.1545 86.1835 18.6666L84.6372 16.3282C83.4207 17.3007 81.8718 17.8462 80.4157 17.8462C78.3823 17.8462 76.531 16.9046 76.0757 14.2921L86.8501 14.2921C86.881 13.8996 86.9128 13.5035 86.9128 13.0792C86.881 8.5553 84.0838 5.45923 80.0223 5.45923M118.118 13.0792C118.118 10.5286 119.788 8.43335 122.519 8.43335C125.129 8.43335 126.89 10.4385 126.89 13.0792C126.89 15.72 125.129 17.7251 122.519 17.7251C119.788 17.7251 118.117 15.6298 118.117 13.0792M129.864 13.0792L129.864 5.8262L126.711 5.8262L126.711 7.59437C125.707 6.28769 124.192 5.46814 122.128 5.46814C118.061 5.46814 114.869 8.65792 114.869 13.0881C114.869 17.5182 118.059 20.708 122.128 20.708C124.192 20.708 125.707 19.8876 126.711 18.5818L126.711 20.3438L129.865 20.3438L129.865 13.0845L129.864 13.0792ZM100.299 13.0792C100.299 17.481 103.363 20.6991 108.04 20.6991C110.225 20.6991 111.681 20.2129 113.256 18.9689L111.741 16.4184C110.556 17.2697 109.312 17.725 107.939 17.725C105.42 17.6941 103.568 15.8729 103.568 13.0792C103.568 10.2854 105.42 8.46512 107.939 8.43329C109.309 8.43329 110.552 8.88859 111.741 9.73997L113.256 7.18938C111.679 5.94548 110.223 5.45923 108.04 5.45923C103.363 5.45923 100.299 8.67642 100.299 13.0792M140.976 5.45923C139.155 5.45923 137.97 6.3106 137.15 7.58546L137.15 5.82612L134.023 5.82612L134.023 20.3357L137.182 20.3357L137.182 12.2021C137.182 9.80097 138.214 8.46688 140.276 8.46688C140.952 8.45714 141.622 8.58123 142.25 8.83201L143.222 5.85794C142.524 5.58299 141.613 5.46187 140.974 5.46187M56.3985 6.97977C54.8806 5.97899 52.7888 5.46179 50.4813 5.46179C46.8053 5.46179 44.4386 7.22378 44.4386 10.1068C44.4386 12.4726 46.2006 13.9322 49.4452 14.3875L50.9358 14.5997C52.6659 14.8428 53.4828 15.2982 53.4828 16.1177C53.4828 17.2396 52.3335 17.8797 50.1755 17.8797C47.99 17.8797 46.4128 17.1813 45.3492 16.3617L43.8666 18.8221C45.5968 20.097 47.7823 20.7052 50.149 20.7052C54.3395 20.7052 56.7681 18.7319 56.7681 15.9692C56.7681 13.4186 54.8567 12.0845 51.6988 11.6292L50.2117 11.4135C48.8458 11.2367 47.7513 10.9617 47.7513 9.98922C47.7513 8.92831 48.783 8.29001 50.5141 8.29001C52.3662 8.29001 54.1592 8.98844 55.038 9.53391L56.4039 6.98332L56.3985 6.97977ZM97.1117 5.46445C95.2913 5.46445 94.1058 6.31582 93.2898 7.59068L93.2898 5.82604L90.1628 5.82604L90.1628 20.3357L93.3181 20.3357L93.3181 12.2021C93.3181 9.80089 94.3498 8.4668 96.4124 8.4668C97.0878 8.45706 97.7584 8.58115 98.3857 8.83193L99.3581 5.85786C98.6597 5.58291 97.7491 5.46179 97.1099 5.46179M70.1859 5.82607L65.0264 5.82607L65.0264 1.42419L61.8366 1.42419L61.8366 5.82607L58.8935 5.82607L58.8935 8.70996L61.8366 8.70996L61.8366 15.3291C61.8366 18.6957 63.1433 20.7008 66.8759 20.7008C68.2454 20.7008 69.8226 20.2765 70.8234 19.5789L69.9119 16.8771C68.9703 17.4226 67.9386 17.6976 67.1181 17.6976C65.5409 17.6976 65.0264 16.7251 65.0264 15.269L65.0264 8.71261L70.1859 8.71261L70.1859 5.82607ZM23.0119 20.3394L23.0119 11.2333C23.0119 7.80393 20.8264 5.49646 17.3034 5.46552C15.4512 5.43458 13.5407 6.01101 12.2031 8.04705C11.2023 6.43802 9.62506 5.46552 7.40777 5.46552C5.85796 5.46552 4.34352 5.92083 3.15796 7.62004L3.15796 5.82622L0 5.82622L0 20.3359L3.18271 20.3359L3.18271 12.2907C3.18271 9.7719 4.57957 8.43339 6.73674 8.43339C8.83203 8.43339 9.89205 9.7993 9.89205 12.2588L9.89205 20.3341L13.0818 20.3341L13.0818 12.2889C13.0818 9.77013 14.5379 8.43163 16.6323 8.43163C18.7869 8.43163 19.815 9.79753 19.815 12.2571L19.815 20.3323L23.0119 20.3394Z" transform="translate(9.155609 116.44318)" id="Shape" fill="#FFFFFF" fill-rule="evenodd" stroke="none" />
      <path d="M47.8167 85.9332L0 85.9332L0 0L47.8176 0L47.8167 85.9332Z" transform="translate(64.51274 11.683228)" id="Shape" fill="#FF5F00" fill-rule="evenodd" stroke="none" />
      <path d="M67.5443 54.6517C67.5443 37.2201 75.7061 21.692 88.4158 11.685C78.7952 4.0991 66.8961 -0.0180444 54.6445 5.93564e-05C24.4645 5.93564e-05 0 24.4681 0 54.6517C0 84.8353 24.4645 109.303 54.6445 109.303C66.8964 109.322 78.7959 105.204 88.4167 97.6183C75.7079 87.6131 67.5443 72.0841 67.5443 54.6517" id="Shape" fill="#EB001B" fill-rule="evenodd" stroke="none" />
      <path d="M88.4211 54.6517C88.4211 84.8353 63.9567 109.303 33.7766 109.303C21.5234 109.321 9.62261 105.204 0 97.6183C12.7132 87.6113 20.8751 72.0841 20.8751 54.6517C20.8751 37.2192 12.7132 21.692 1.07921e-05 11.685C9.6224 4.09932 21.5228 -0.0177327 33.7757 5.80074e-05C63.9558 5.80074e-05 88.4203 24.4681 88.4203 54.6517" transform="translate(88.41843 0)" id="Shape" fill="#F79E1B" fill-rule="evenodd" stroke="none" />
    </g>
  </g>
</svg>