<?xml version="1.0" encoding="utf-8"?>
<svg width="354px" height="282px" viewBox="0 0 354 282" version="1.1" xmlns:xlink="http://www.w3.org/1999/xlink" xmlns="http://www.w3.org/2000/svg">
  <defs>
    <path d="M0 0L352.475 0L352.475 280.9L0 280.9L0 0Z" id="path_1" />
    <clipPath id="mask_1">
      <use xlink:href="#path_1" />
    </clipPath>
  </defs>
  <g id="undraw_learning_sketching_nd4f" transform="translate(0.5 0.5)">
    <path d="M0 0L352.475 0L352.475 280.9L0 280.9L0 0Z" id="Background" fill="none" fill-rule="evenodd" stroke="none" />
    <g clip-path="url(#mask_1)">
      <path d="M54.6833 51.5712C54.6317 51.58 54.5544 51.5931 54.4606 51.6086C52.6265 51.9122 41.5371 53.6232 30.3567 49.3642C25.6204 47.56 27.2361 47.1103 16.6874 40.8376C4.3203 33.4836 1.14647 33.535 0.225515 30.106C-1.61342 23.2587 8.20604 12.4947 14.7055 13.2034C16.4166 13.39 18.2492 14.4102 21.0995 13.7184C21.7257 13.5664 24.467 12.9012 25.8034 10.632C26.9956 8.60783 25.9858 7.14762 26.4653 5.48747C27.7238 1.12979 38.2144 -1.04492 47.4117 0.491633C52.7017 1.3754 56.8163 3.78815 64.8293 8.57757C78.7764 16.9137 85.7498 21.0818 87.3171 27.4677C88.8026 33.5204 85.2372 36.1284 87.8302 42.6077C90.2448 48.6406 94.0796 48.2377 95.3993 53.1181C97.5229 60.9716 89.6411 69.5909 86.3577 73.1814C82.7579 77.118 79.3152 79.2785 74.7447 82.1468C69.008 85.7469 66.1397 87.547 62.6911 87.3638C56.4387 87.0318 37.8596 88.1621 37.6172 82.988C37.5264 81.049 14.9931 82.6367 26.0886 61.7605C27.4495 59.1999 54.1102 61.935 54.462 60.464" transform="translate(180.82892 10.95752)" id="Shape" fill="#20132A" fill-rule="evenodd" stroke="none" />
      <path d="M35.8461 0L55.0101 28.5854L0 39.7101L3.50384 3.9222L35.8461 0L35.8461 0Z" transform="translate(210.45679 75.887695)" id="Polygon" fill="#FFB6B6" fill-rule="evenodd" stroke="none" />
      <path d="M35.8461 0L55.0101 28.5854L0 39.7101L3.50384 3.9222L35.8461 0L35.8461 0Z" transform="translate(210.45679 75.887695)" id="Polygon" fill="#000000" fill-opacity="0.1" fill-rule="evenodd" stroke="none" />
      <path d="M27.1936 2.47215L86.5252 0L112.895 14.4209L111.659 107.126L139.264 159.454L0 133.084L10.7126 93.5296L5.76834 10.3006L27.1936 2.47215L27.1936 2.47215Z" transform="translate(179.14288 94.58447)" id="Polygon" fill="#C273EF" fill-rule="evenodd" stroke="none" />
      <path d="M1.59786 63.1444C-0.296338 60.1587 -0.520039 56.4694 0.999582 53.2761L23.5814 5.8291C25.2667 2.28799 28.8898 0 32.8114 0L318.037 0C321.85 0 325.318 2.09729 327.089 5.47356L351.294 51.613C352.967 54.8024 352.857 58.5482 350.999 61.6339C349.142 64.7192 345.883 66.5696 342.282 66.5839L10.2698 67.8909L10.2282 67.8909C6.70858 67.8909 3.4844 66.1187 1.59789 63.1444L1.59786 63.1444Z" transform="translate(0 214.00928)" id="Shape" fill="#351B5C" fill-rule="evenodd" stroke="#808080" stroke-width="1" />
      <path d="M1.59786 63.1444C-0.296338 60.1587 -0.520039 56.4694 0.999582 53.2761L23.5814 5.8291C25.2667 2.28799 28.8898 0 32.8114 0L318.037 0C321.85 0 325.318 2.09729 327.089 5.47356L351.294 51.613C352.967 54.8024 352.857 58.5482 350.999 61.6339C349.142 64.7192 345.883 66.5696 342.282 66.5839L10.2698 67.8909L10.2282 67.8909C6.70858 67.8909 3.4844 66.1187 1.59789 63.1444L1.59786 63.1444ZM32.8114 1.07302C29.3013 1.07302 26.0587 3.12108 24.5502 6.29025L1.96841 53.7373C0.608227 56.5953 0.808352 59.8972 2.50382 62.57C4.19249 65.2321 7.07788 66.818 10.2284 66.818L10.2656 66.818L342.278 65.5111C345.501 65.4986 348.418 63.842 350.08 61.0804C351.742 58.3189 351.841 54.966 350.344 52.1118L326.139 5.9717C324.554 2.95027 321.45 1.073 318.037 1.073L32.8114 1.073L32.8114 1.07302Z" transform="translate(0 214.00928)" id="Shape" fill="#3F3D56" fill-rule="evenodd" stroke="none" />
      <path d="M0 35.2248C0 15.7707 15.7707 0 35.2248 0C54.6789 0 70.4496 15.7707 70.4496 35.2248C70.4496 54.6789 54.6789 70.4496 35.2248 70.4496C15.7707 70.4496 0 54.6789 0 35.2248Z" transform="translate(195.21509 15.066772)" id="Circle" fill="#FFB6B6" fill-rule="evenodd" stroke="none" />
      <path d="M54.6833 51.5712C54.6317 51.58 54.5544 51.5931 54.4607 51.6086C52.6265 51.9122 41.5371 53.6232 30.3567 49.3642C25.6203 47.56 27.2361 47.1103 16.6874 40.8376C4.3203 33.4836 1.14647 33.535 0.225515 30.106C-1.61342 23.2587 8.20604 12.4947 14.7055 13.2034C16.4166 13.39 18.2492 14.4102 21.0995 13.7184C21.7257 13.5664 24.467 12.9012 25.8034 10.632C26.9956 8.60783 25.9858 7.14762 26.4653 5.48747C27.7238 1.12979 38.2144 -1.04492 47.4118 0.491633C52.7017 1.37541 56.8163 3.78815 64.8293 8.57757C78.7764 16.9137 85.7498 21.0818 87.3171 27.4677C88.8026 33.5204 85.2372 36.1284 87.8302 42.6077C90.2448 48.6406 94.0796 48.2377 95.3993 53.1181C97.5229 60.9716 89.6411 69.5909 86.3577 73.1814C82.7579 77.118 79.3152 79.2785 74.7447 82.1468C69.008 85.7469 66.1397 87.547 62.6911 87.3638C56.4387 87.0318 50.2198 81.3656 49.9775 76.1915C49.8867 74.2524 50.6956 73.6709 52.6976 67.0049C53.5317 64.2277 54.1102 61.935 54.462 60.464" transform="translate(187.1023 1)" id="Shape" fill="#191126" fill-rule="evenodd" stroke="none" />
      <path d="M20.2774 55.7935C24.2228 56.5362 27.9329 58.2131 31.0973 60.6836L31.2753 60.722L31.3113 60.5447L69.4243 66.5143L66.6632 15.8205L95.5481 0L88.7208 85.6899C87.2422 91.1624 81.5629 94.3585 76.1177 92.7824L27.6014 78.8273L27.7226 78.2303L27.553 78.1846C23.6756 79.2303 19.6041 79.3321 15.6794 78.4813C5.8333 76.4888 -1.11964 69.7933 0.149454 63.5274C1.41855 57.2615 10.4281 53.7989 20.2774 55.7935L20.2774 55.7935Z" transform="translate(213.1529 141.6554)" id="Shape" fill="#FFB6B6" fill-rule="evenodd" stroke="none" />
      <path d="M0 9.06454L32.5499 0C32.5499 0 49.649 12.5668 51.7091 26.1636C51.9541 27.7807 52.6338 103.107 51.9151 105.066C46.591 119.577 17.305 96.4137 17.305 96.4137L0 9.06453L0 9.06454Z" transform="translate(259.4877 109.00513)" id="Shape" fill="#C273EF" fill-rule="evenodd" stroke="none" />
      <path d="M83.7133 40.3771L80.3389 37.4848L80.3386 37.4848C79.8363 37.0539 79.2255 36.7686 78.5723 36.6596L3.3848 24.1282C1.6687 23.8421 0.401041 22.6029 0.0763273 20.8936C-0.248182 19.1843 0.476884 17.5664 1.96886 16.6712L28.7923 0.577247C29.6888 0.0392812 30.7438 -0.130116 31.7644 0.100441L127.096 21.6384C128.949 22.0568 130.186 23.5545 130.247 25.4536C130.308 27.3528 129.169 28.9265 127.346 29.4628L87.4863 41.1862C87.1081 41.2977 86.7224 41.352 86.34 41.352C85.3886 41.352 84.4575 41.0152 83.7133 40.3771L83.7133 40.3771Z" transform="translate(84.963554 215.59277)" id="Shape" fill="#8773EF" fill-rule="evenodd" stroke="none" />
      <path d="M21.8286 42.6124C25.5555 44.1049 28.8708 46.4682 31.497 49.5047L31.6643 49.5768L31.7339 49.4098L67.9702 62.645L106.66 0L128.05 13.2562L83.1893 85.1936C80.6792 90.2763 74.4886 92.3124 69.4515 89.712L24.5548 66.6283L24.7892 66.066L24.6317 65.9884C20.6252 66.2637 16.611 65.5753 12.9252 63.9809C3.65119 60.1198 -1.874 52.205 0.58415 46.3033C3.04228 40.4016 12.5518 38.7487 21.8286 42.6124L21.8286 42.6124Z" transform="matrix(0.9998477 0.017452406 -0.017452406 0.9998477 61.066734 116.27026)" id="Shape" fill="#FFB6B6" fill-rule="evenodd" stroke="none" />
      <path d="M83.2116 25.5908L66.0986 0C66.0986 0 45.7344 4.03072 37.3457 14.9279C36.2972 16.29 0.27864 68.5279 0.0465866 70.8076C-1.57776 86.7656 39.819 94.2428 39.819 94.2428L83.2116 25.5909L83.2116 25.5908Z" transform="translate(125.2178 103.09924)" id="Shape" fill="#C273EF" fill-rule="evenodd" stroke="none" />
      <path d="M112.34 95.8386L26.1519 83.9261C23.2673 83.5278 20.8865 81.4608 20.0862 78.6608L0.291115 9.37786C-0.379632 7.02964 0.121114 4.59813 1.665 2.7062C3.20888 0.814267 5.48991 -0.163487 7.92564 0.0224069L94.76 6.67516C97.9015 6.91577 100.539 9.12799 101.323 12.1795L120.471 86.7222C121.082 89.101 120.471 91.6154 118.836 93.4482C117.429 95.0267 115.432 95.9082 113.352 95.9082C113.016 95.9082 112.678 95.8853 112.34 95.8386L112.34 95.8386Z" transform="translate(54.474648 160.90002)" id="Shape" fill="#8773EF" fill-rule="evenodd" stroke="none" />
    </g>
  </g>
</svg>