<?xml version="1.0" encoding="utf-8"?>
<svg width="235px" height="235px" viewBox="0 0 235 235" version="1.1" xmlns:xlink="http://www.w3.org/1999/xlink" xmlns="http://www.w3.org/2000/svg">
  <defs>
    <path d="M0 0L232 0L232 232L0 232L0 0Z" id="path_1" />
    <clipPath id="mask_1">
      <use xlink:href="#path_1" />
    </clipPath>
  </defs>
  <g id="Group" transform="translate(1.5 1.5)">
    <g id="safebox-svgrepo-com">
      <path d="M0 0L232 0L232 232L0 232L0 0Z" id="Background" fill="none" fill-rule="evenodd" stroke="none" />
      <g clip-path="url(#mask_1)">
        <g id="Group" transform="translate(0 16)">
          <path d="M0 0L32 0L32 16L0 16L0 0Z" transform="translate(8 184)" id="Rectangle" fill="#E1E1E1" fill-rule="evenodd" stroke="none" />
          <path d="M0 0L32 0L32 16L0 16L0 0Z" transform="translate(192 184)" id="Rectangle" fill="#E1E1E1" fill-rule="evenodd" stroke="none" />
          <path d="M11.999 0L220.001 0Q220.296 0 220.59 0.0144533Q220.884 0.0289066 221.177 0.0577785Q221.47 0.0866503 221.762 0.129871Q222.053 0.173092 222.342 0.230557Q222.631 0.288023 222.917 0.359595Q223.202 0.431167 223.484 0.516673Q223.766 0.602179 224.043 0.701413Q224.321 0.800647 224.593 0.913369Q224.865 1.02609 225.131 1.15203Q225.397 1.27797 225.657 1.41683Q225.917 1.55568 226.17 1.70711Q226.422 1.85855 226.667 2.0222Q226.912 2.18584 227.149 2.36131Q227.385 2.53678 227.613 2.72365Q227.841 2.91051 228.059 3.10833Q228.277 3.30614 228.486 3.51443Q228.694 3.72271 228.892 3.94096Q229.089 4.15922 229.276 4.38691Q229.463 4.61461 229.639 4.8512Q229.814 5.0878 229.978 5.33271Q230.141 5.57763 230.293 5.83028Q230.444 6.08293 230.583 6.34271Q230.722 6.60249 230.848 6.86877Q230.974 7.13504 231.087 7.40718Q231.199 7.67932 231.299 7.95666Q231.398 8.234 231.483 8.51587Q231.569 8.79775 231.64 9.08348Q231.712 9.36921 231.769 9.65811Q231.827 9.94701 231.87 10.2384Q231.913 10.5298 231.942 10.8229Q231.971 11.116 231.986 11.4102Q232 11.7044 232 11.999L232 172.001Q232 172.296 231.986 172.59Q231.971 172.884 231.942 173.177Q231.913 173.47 231.87 173.762Q231.827 174.053 231.769 174.342Q231.712 174.631 231.64 174.917Q231.569 175.202 231.483 175.484Q231.398 175.766 231.299 176.043Q231.199 176.321 231.087 176.593Q230.974 176.865 230.848 177.131Q230.722 177.397 230.583 177.657Q230.444 177.917 230.293 178.17Q230.141 178.422 229.978 178.667Q229.814 178.912 229.639 179.149Q229.463 179.385 229.276 179.613Q229.089 179.841 228.892 180.059Q228.694 180.277 228.486 180.486Q228.277 180.694 228.059 180.892Q227.841 181.089 227.613 181.276Q227.385 181.463 227.149 181.639Q226.912 181.814 226.667 181.978Q226.422 182.141 226.17 182.293Q225.917 182.444 225.657 182.583Q225.397 182.722 225.131 182.848Q224.865 182.974 224.593 183.087Q224.321 183.199 224.043 183.299Q223.766 183.398 223.484 183.483Q223.202 183.569 222.916 183.64Q222.631 183.712 222.342 183.769Q222.053 183.827 221.762 183.87Q221.47 183.913 221.177 183.942Q220.884 183.971 220.59 183.986Q220.296 184 220.001 184L11.999 184Q11.7044 184 11.4102 183.986Q11.116 183.971 10.8229 183.942Q10.5298 183.913 10.2384 183.87Q9.94701 183.827 9.65811 183.769Q9.36921 183.712 9.08348 183.64Q8.79775 183.569 8.51587 183.483Q8.234 183.398 7.95666 183.299Q7.67932 183.199 7.40718 183.087Q7.13504 182.974 6.86877 182.848Q6.60249 182.722 6.34271 182.583Q6.08293 182.444 5.83028 182.293Q5.57763 182.141 5.33271 181.978Q5.0878 181.814 4.8512 181.639Q4.61461 181.463 4.38691 181.276Q4.15922 181.089 3.94096 180.892Q3.72271 180.694 3.51443 180.486Q3.30614 180.277 3.10833 180.059Q2.91051 179.841 2.72365 179.613Q2.53678 179.385 2.36131 179.149Q2.18584 178.912 2.0222 178.667Q1.85855 178.422 1.70711 178.17Q1.55568 177.917 1.41683 177.657Q1.27797 177.397 1.15203 177.131Q1.02609 176.865 0.913369 176.593Q0.800647 176.321 0.701413 176.043Q0.602179 175.766 0.516673 175.484Q0.431167 175.202 0.359595 174.917Q0.288023 174.631 0.230557 174.342Q0.173092 174.053 0.129871 173.762Q0.0866503 173.47 0.0577785 173.177Q0.0289066 172.884 0.0144533 172.59Q0 172.296 0 172.001L0 11.999Q0 11.7044 0.0144533 11.4102Q0.0289066 11.116 0.0577785 10.8229Q0.0866503 10.5298 0.129871 10.2384Q0.173092 9.94701 0.230557 9.65811Q0.288023 9.36921 0.359595 9.08348Q0.431167 8.79775 0.516673 8.51587Q0.602179 8.234 0.701413 7.95666Q0.800647 7.67932 0.913369 7.40718Q1.02609 7.13504 1.15203 6.86877Q1.27797 6.60249 1.41683 6.34271Q1.55568 6.08293 1.70711 5.83028Q1.85855 5.57763 2.0222 5.33271Q2.18584 5.0878 2.36131 4.8512Q2.53678 4.61461 2.72365 4.38691Q2.91051 4.15922 3.10833 3.94096Q3.30614 3.72271 3.51443 3.51443Q3.72271 3.30614 3.94096 3.10833Q4.15922 2.91051 4.38691 2.72365Q4.61461 2.53678 4.8512 2.36131Q5.0878 2.18584 5.33271 2.0222Q5.57763 1.85855 5.83028 1.70711Q6.08293 1.55568 6.34271 1.41683Q6.60249 1.27797 6.86877 1.15203Q7.13504 1.02609 7.40718 0.913369Q7.67932 0.800647 7.95666 0.701413Q8.234 0.602179 8.51587 0.516673Q8.79775 0.431167 9.08348 0.359595Q9.36921 0.288023 9.65811 0.230557Q9.94701 0.173092 10.2384 0.129871Q10.5298 0.0866503 10.8229 0.0577785Q11.116 0.0289066 11.4102 0.0144533Q11.7044 0 11.999 0Z" id="Rectangle" fill="#0F6EFE" fill-rule="evenodd" stroke="none" />
          <path d="M195.968 152L4.032 152C1.804 152 0 150.196 0 147.968L0 4.032C0 1.804 1.804 0 4.032 0L195.968 0C198.196 0 200 1.804 200 4.032L200 147.968C200 150.196 198.196 152 195.968 152L195.968 152Z" transform="translate(16 16)" id="Shape" fill="#33A6F8" fill-rule="evenodd" stroke="none" />
          <g id="Group" transform="translate(96 43.999878)">
            <path d="M0 44C0 19.6995 19.6995 0 44 0C68.3005 0 88 19.6995 88 44C88 68.3005 68.3005 88 44 88C19.6995 88 0 68.3005 0 44Z" transform="translate(3.9999847 4)" id="Circle" fill="#59565E" fill-rule="evenodd" stroke="none" />
            <path d="M48 96C21.532 96 0 74.468 0 48C0 21.532 21.532 0 48 0C74.468 0 96 21.532 96 48C96 74.468 74.468 96 48 96L48 96ZM48 8.00012C25.944 8.00012 8 25.9441 8 48.0001C8 70.0561 25.944 88.0001 48 88.0001C70.056 88.0001 88 70.0561 88 48.0001C88 25.9441 70.056 8.00012 48 8.00012L48 8.00012Z" id="Shape" fill="#BDC3C7" fill-rule="evenodd" stroke="none" />
          </g>
          <path d="M4 16C1.78799 16 0 14.212 0 12L0 4C0 1.788 1.78799 0 4 0C6.21201 0 8 1.788 8 4L8 12C8 14.212 6.21201 16 4 16L4 16Z" transform="translate(140 43.999878)" id="Shape" fill="#BDC3C7" fill-rule="evenodd" stroke="none" />
          <path d="M4 16C1.78799 16 0 14.212 0 12L0 4C0 1.78799 1.78799 0 4 0C6.21201 0 8 1.78799 8 4L8 12C8 14.212 6.21201 16 4 16L4 16Z" transform="translate(140 124)" id="Shape" fill="#BDC3C7" fill-rule="evenodd" stroke="none" />
          <path d="M12 7.99999L4 7.99999C1.78799 7.99999 0 6.21199 0 4C0 1.788 1.78799 0 4 0L12 0C14.212 0 16 1.788 16 4C16 6.21199 14.212 7.99999 12 7.99999L12 7.99999Z" transform="translate(176.00003 88)" id="Shape" fill="#BDC3C7" fill-rule="evenodd" stroke="none" />
          <path d="M12 7.99999L4 7.99999C1.788 7.99999 0 6.21199 0 4C0 1.788 1.788 0 4 0L12 0C14.212 0 16 1.788 16 4C16 6.21199 14.212 7.99999 12 7.99999L12 7.99999Z" transform="translate(96 88)" id="Shape" fill="#BDC3C7" fill-rule="evenodd" stroke="none" />
          <path d="M4.00101 13.657C2.97701 13.657 1.953 13.265 1.173 12.485C-0.390991 10.921 -0.390991 8.393 1.173 6.829L6.82901 1.173C8.39301 -0.390999 10.921 -0.390999 12.485 1.173C14.049 2.73701 14.049 5.26501 12.485 6.829L6.82901 12.485C6.04901 13.265 5.02501 13.657 4.00101 13.657L4.00101 13.657Z" transform="translate(165.45496 56.887207)" id="Shape" fill="#BDC3C7" fill-rule="evenodd" stroke="none" />
          <path d="M4.00101 13.657C2.97701 13.657 1.95301 13.265 1.173 12.485C-0.390999 10.921 -0.390999 8.39302 1.173 6.82901L6.829 1.173C8.39301 -0.390991 10.921 -0.390991 12.485 1.173C14.049 2.737 14.049 5.265 12.485 6.82901L6.829 12.485C6.04501 13.269 5.02501 13.657 4.00101 13.657L4.00101 13.657Z" transform="translate(108.88696 113.45508)" id="Shape" fill="#BDC3C7" fill-rule="evenodd" stroke="none" />
          <path d="M9.65701 13.657C8.63301 13.657 7.60901 13.265 6.82901 12.485L1.173 6.82901C-0.390991 5.26501 -0.390991 2.73701 1.173 1.173C2.737 -0.391006 5.265 -0.390991 6.82901 1.173L12.485 6.82901C14.049 8.39301 14.049 10.921 12.485 12.485C11.705 13.269 10.681 13.657 9.65701 13.657L9.65701 13.657Z" transform="translate(165.45496 113.45508)" id="Shape" fill="#BDC3C7" fill-rule="evenodd" stroke="none" />
          <path d="M9.657 13.657C8.633 13.657 7.609 13.265 6.829 12.485L1.173 6.82899C-0.390999 5.26499 -0.390999 2.73699 1.173 1.173C2.73701 -0.390999 5.265 -0.391006 6.829 1.173L12.485 6.82899C14.049 8.393 14.049 10.921 12.485 12.485C11.701 13.265 10.681 13.657 9.657 13.657L9.657 13.657Z" transform="translate(108.88696 56.887207)" id="Shape" fill="#BDC3C7" fill-rule="evenodd" stroke="none" />
          <path d="M0 12C0 5.37258 5.37258 0 12 0C18.6274 0 24 5.37258 24 12C24 18.6274 18.6274 24 12 24C5.37258 24 0 18.6274 0 12Z" transform="translate(132 80)" id="Circle" fill="#FFFFFF" fill-rule="evenodd" stroke="none" />
          <g id="Group" transform="translate(36 52)">
            <path d="M7.42857 0C5.37457 0 3.71429 1.13782 3.71429 2.54545L3.71429 5.09091C1.66029 5.09091 0 6.22873 0 7.63636C0 9.044 1.66028 10.1818 3.71429 10.1818L3.71429 45.8182C1.66029 45.8182 0 46.956 0 48.3636C0 49.7713 1.66028 50.9091 3.71429 50.9091L3.71429 53.4546C3.71429 54.8622 5.37457 56 7.42857 56C9.48257 56 11.1429 54.8622 11.1429 53.4546L11.1429 2.54545C11.1429 1.13782 9.48257 0 7.42857 0L7.42857 0Z" transform="translate(14.857143 0)" id="Shape" fill="#EEEEEE" fill-rule="evenodd" stroke="none" />
            <path d="M11.1429 7.63636C11.1429 6.22873 9.48257 5.09091 7.42857 5.09091L7.42857 2.54545C7.42857 1.13782 5.76829 0 3.71429 0C1.66028 0 0 1.13782 0 2.54545L0 53.4546C0 54.8622 1.66028 56 3.71429 56C5.76829 56 7.42857 54.8622 7.42857 53.4546L7.42857 50.9091C9.48257 50.9091 11.1429 49.7713 11.1429 48.3636C11.1429 46.956 9.48257 45.8182 7.42857 45.8182L7.42857 10.1818C9.48257 10.1818 11.1429 9.044 11.1429 7.63636L11.1429 7.63636Z" id="Shape" fill="#EEEEEE" fill-rule="evenodd" stroke="none" />
          </g>
          <g id="Group" transform="translate(204 31.999878)">
            <path d="M4 8L16 8C18.212 8 20 6.212 20 4C20 1.788 18.212 0 16 0L4 0C1.78799 0 0 1.788 0 4C0 6.212 1.78799 8 4 8L4 8Z" id="Shape" fill="#EEEEEE" fill-rule="evenodd" stroke="none" />
            <path d="M16 0L4 0C1.78799 0 0 1.788 0 4C0 6.212 1.78799 8 4 8L16 8C18.212 8 20 6.212 20 4C20 1.788 18.212 0 16 0L16 0Z" transform="translate(0 12)" id="Shape" fill="#EEEEEE" fill-rule="evenodd" stroke="none" />
            <path d="M16 0L4 0C1.78799 0 0 1.78799 0 4C0 6.21201 1.78799 8 4 8L16 8C16.049 8 16.0978 7.99912 16.1464 7.99738C18.2903 7.92056 20 6.163 20 4C20 1.78799 18.212 0 16 0L16 0Z" transform="translate(0 100)" id="Shape" fill="#EEEEEE" fill-rule="evenodd" stroke="none" />
            <path d="M16 0L4 0C1.78799 0 0 1.78799 0 4C0 6.21201 1.78799 8 4 8L16 8C18.212 8 20 6.21201 20 4C20 1.78799 18.212 0 16 0L16 0Z" transform="translate(0 112.00012)" id="Shape" fill="#EEEEEE" fill-rule="evenodd" stroke="none" />
          </g>
        </g>
      </g>
    </g>
    <path d="M4.999 0L195.001 0C197.762 0 200 2.23813 200 4.999C200 9.16809 200 16.8 200 30.7575C200 60.4477 200 118.76 200 118.76L200 145.001Q200 145.124 199.994 145.246Q199.988 145.369 199.976 145.491Q199.964 145.613 199.946 145.734Q199.928 145.856 199.904 145.976Q199.88 146.097 199.85 146.216Q199.82 146.335 199.785 146.452Q199.749 146.57 199.708 146.685Q199.666 146.801 199.619 146.914Q199.572 147.027 199.52 147.138Q199.468 147.249 199.41 147.357Q199.352 147.466 199.289 147.571Q199.226 147.676 199.158 147.778Q199.089 147.88 199.016 147.979Q198.943 148.077 198.865 148.172Q198.787 148.267 198.705 148.358Q198.623 148.449 198.536 148.536Q198.449 148.623 198.358 148.705Q198.267 148.787 198.172 148.865Q198.077 148.943 197.979 149.016Q197.88 149.089 197.778 149.158Q197.676 149.226 197.571 149.289Q197.466 149.352 197.357 149.41Q197.249 149.468 197.138 149.52Q197.027 149.572 196.914 149.619Q196.801 149.666 196.685 149.708Q196.57 149.749 196.452 149.785Q196.335 149.82 196.216 149.85Q196.097 149.88 195.976 149.904Q195.856 149.928 195.734 149.946Q195.613 149.964 195.491 149.976Q195.369 149.988 195.246 149.994Q195.124 150 195.001 150L4.999 150Q4.87628 150 4.75371 149.994Q4.63114 149.988 4.50901 149.976Q4.38688 149.964 4.26549 149.946Q4.1441 149.928 4.02374 149.904Q3.90338 149.88 3.78434 149.85Q3.6653 149.82 3.54787 149.785Q3.43043 149.749 3.31489 149.708Q3.19934 149.666 3.08597 149.619Q2.97259 149.572 2.86165 149.52Q2.75072 149.468 2.64249 149.41Q2.53426 149.352 2.429 149.289Q2.32374 149.226 2.2217 149.158Q2.11967 149.089 2.0211 149.016Q1.92253 148.943 1.82767 148.865Q1.73281 148.787 1.64188 148.705Q1.55095 148.623 1.46417 148.536Q1.3774 148.449 1.29499 148.358Q1.21257 148.267 1.13472 148.172Q1.05687 148.077 0.983765 147.979Q0.910662 147.88 0.842483 147.778Q0.774305 147.676 0.711215 147.571Q0.648125 147.466 0.590276 147.357Q0.532426 147.249 0.479957 147.138Q0.427489 147.027 0.380526 146.914Q0.333564 146.801 0.292221 146.685Q0.250879 146.57 0.215255 146.452Q0.179632 146.335 0.149814 146.216Q0.119996 146.097 0.0960544 145.976Q0.0721132 145.856 0.0541066 145.735Q0.0361001 145.613 0.0240715 145.491Q0.012043 145.369 0.00602151 145.246Q0 145.124 0 145.001L0 4.999Q0 4.87628 0.00602151 4.75371Q0.012043 4.63114 0.0240715 4.50901Q0.0361001 4.38688 0.0541066 4.26549Q0.0721132 4.1441 0.0960544 4.02374Q0.119996 3.90338 0.149814 3.78434Q0.179632 3.6653 0.215255 3.54787Q0.250879 3.43043 0.292221 3.31489Q0.333564 3.19934 0.380526 3.08597Q0.427489 2.97259 0.479957 2.86165Q0.532426 2.75072 0.590276 2.64249Q0.648125 2.53426 0.711215 2.429Q0.774305 2.32374 0.842483 2.2217Q0.910662 2.11967 0.983765 2.0211Q1.05687 1.92253 1.13472 1.82767Q1.21257 1.73281 1.29499 1.64188Q1.3774 1.55095 1.46417 1.46417Q1.55095 1.3774 1.64188 1.29499Q1.73281 1.21257 1.82767 1.13472Q1.92253 1.05687 2.0211 0.983765Q2.11967 0.910662 2.2217 0.842483Q2.32374 0.774305 2.429 0.711215Q2.53426 0.648125 2.64249 0.590276Q2.75072 0.532426 2.86165 0.479957Q2.97259 0.427489 3.08597 0.380526Q3.19934 0.333564 3.31489 0.292221Q3.43043 0.250879 3.54787 0.215255Q3.6653 0.179632 3.78434 0.149814Q3.90338 0.119996 4.02374 0.0960544Q4.1441 0.0721132 4.26549 0.0541066Q4.38688 0.0361001 4.50901 0.0240715Q4.63114 0.012043 4.75371 0.00602151Q4.87628 0 4.999 0L4.999 0Z" transform="translate(15.767487 33.239136)" id="Rectangle-4" fill="none" fill-rule="evenodd" stroke="#1362DB" stroke-width="3" />
  </g>
</svg>