<?xml version="1.0" encoding="utf-8"?>
<svg width="289px" height="310px" viewBox="0 0 289 310" version="1.1" xmlns:xlink="http://www.w3.org/1999/xlink" xmlns="http://www.w3.org/2000/svg">
  <defs>
    <filter filterUnits="userSpaceOnUse" color-interpolation-filters="sRGB" id="filter_1">
      <feFlood flood-opacity="0" result="BackgroundImageFix" />
      <feColorMatrix in="SourceAlpha" type="matrix" values="0 0 0 0 0 0 0 0 0 0 0 0 0 0 0 0 0 0 127 0" />
      <feOffset dx="0" dy="2" />
      <feGaussianBlur stdDeviation="2" />
      <feColorMatrix type="matrix" values="0 0 0 0 0 0 0 0 0 0 0 0 0 0 0 0 0 0 0.34901962 0" />
      <feBlend mode="normal" in2="BackgroundImageFix" result="effect0_dropShadow" />
      <feBlend mode="normal" in="SourceGraphic" in2="effect0_dropShadow" result="shape" />
    </filter>
    <path d="M0 0L17.3301 0L17.3301 24.2169L0 24.2169L0 0Z" transform="matrix(1 -7.7592624E-08 7.7592624E-08 1 0 1.1444092E-05)" id="path_1" />
    <clipPath id="mask_1">
      <use xlink:href="#path_1" />
    </clipPath>
  </defs>
  <path d="M1.69035e-07 0L0 93L92 125L180 93L179.5 0L92 28.5L1.69035e-07 0Z" transform="translate(47.949493 184.97723)" id="New-shape-5" fill="#6E58DE" fill-rule="evenodd" stroke="none" />
  <path d="M0 23L92 0L179 23L92 52L0 23Z" transform="translate(48.949493 161.97723)" id="New-shape-6" fill="#5542B4" fill-rule="evenodd" stroke="none" />
  <path d="M6 62.5L39 30.5L0 27.5L83.5 6.5L128 7.5L169.5 0L258 21.5L219.5 30.5L261 55L169.5 87L128.5 62.5L100 93.5L6 62.5ZM131 7.5L39 30.5L131 59.5L218 30.5L131 7.5Z" transform="translate(9.949493 154.47723)" id="New-shape-7-Copy-Difference" fill="#AD9DFF" fill-rule="evenodd" stroke="none" />
  <g id="rocket-svgrepo-com" transform="matrix(0.7071072 -0.70710635 0.70710635 0.7071072 32.774284 85.891174)">
    <path d="M0 21.03L16.34 4.93L44.16 0L41.41 14.56L3.8 26.12L1.37 25.07L0 21.03Z" transform="matrix(0.9999999 4.973799E-14 -4.973799E-14 0.9999999 1.3208923 77.309814)" id="Shape" fill="#C272EF" fill-rule="evenodd" stroke="none" />
    <path d="M17.74 3.32L0 19.44L13.05 25.8L32.86 15.69L32.86 10.92L36.91 0L17.74 3.32Z" transform="matrix(0.9999999 4.973799E-14 -4.973799E-14 0.9999999 2.7511292 83.04889)" id="Shape" fill="#9A3DCF" fill-rule="evenodd" stroke="none" />
    <path d="M16.66 6.63999L8.09 10.36L0 27.51C0 27.51 7.12 43.28 7.44 43.28C7.76 43.28 11.81 43.6 11.81 43.6L26.21 27.5L29.85 0L16.66 6.64L16.66 6.63999Z" transform="matrix(0.9999999 4.973799E-14 -4.973799E-14 0.9999999 45.810394 108.12042)" id="Shape" fill="#9A3DCF" fill-rule="evenodd" stroke="none" />
    <path d="M6.59 6.63C6.59 6.63 11.36 5.66 14.76 4.04C18.16 2.42 22.36 0 22.36 0L20.82 13.43L5.77 30.56C5.77 30.56 5.18 29.83 2.68 24.39C0.689999 20.05 0 18.5 0 18.5L6.59 6.63L6.59 6.63Z" transform="matrix(0.9999999 4.973799E-14 -4.973799E-14 0.9999999 47.460724 120.819275)" id="Shape" fill="#C272EF" fill-rule="evenodd" stroke="none" />
    <path d="M29.131 0.00557233C29.131 0.00557233 23.391 -0.474431 17.101 7.47557C11.361 14.7356 8.67102 26.5556 7.63102 29.5956C6.59102 32.6356 -0.764854 40.0193 0.0651467 41.4093C0.895147 42.7992 9.35102 35.9556 13.781 35.4056C18.211 34.8556 22.011 33.4656 22.011 33.4656C22.011 33.4656 21.821 33.9456 21.181 34.9856C20.951 35.3556 20.151 35.8856 20.211 36.4356C20.351 37.7456 31.571 37.7756 40.531 28.5556C50.211 18.6056 45.511 10.4456 45.511 10.4456L29.131 0.00557233L29.131 0.00557233Z" transform="matrix(0.9999999 4.973799E-14 -4.973799E-14 0.9999999 0 107.26361)" id="Shape" fill="#F7D74D" fill-rule="evenodd" stroke="none" />
    <path d="M19.5273 0C19.5273 0 13.3373 0.330002 8.21729 8.28C3.09729 16.23 -0.444772 27.6686 0.045228 28.2886C0.525227 28.9086 11.2273 23.23 13.5173 23.92C15.0873 24.4 14.2773 25.99 14.6973 26.41C15.0473 26.76 19.1873 27.35 25.8873 20.09C32.5973 12.83 31.0073 2.63 31.0073 2.63L19.5273 0L19.5273 0Z" transform="matrix(0.9999999 4.973799E-14 -4.973799E-14 0.9999999 11.33374 111.899536)" id="Shape" fill="#FBF0B4" fill-rule="evenodd" stroke="none" />
    <path d="M5.28528 0C5.28528 0 2.17528 2.77 1.06528 4.36C-0.0447197 5.95 -0.0447197 6.09 0.02528 6.57C0.0952797 7.05 1.24528 12.32 6.03528 16.94C11.9153 22.61 17.1653 23.37 17.9253 23.37C18.6853 23.37 23.7353 17.7 23.7353 17.7L5.28528 0L5.28528 0Z" transform="matrix(0.9999999 4.973799E-14 -4.973799E-14 0.9999999 28.615753 101.04932)" id="Shape" fill="#673285" fill-rule="evenodd" stroke="none" />
    <path d="M0 66.69C0 66.69 5.04 70 13.49 67.16C25.04 63.28 33.51 54.6 44 43.64C54.12 33.06 62.61 19.93 62.61 19.93L61.0483 14.6991L58.4948 6.14568L56.66 0L24.8622 37.4267L0 66.69L0 66.69Z" transform="matrix(0.9999999 4.973799E-14 -4.973799E-14 0.9999999 47.65088 51.158752)" id="Shape" fill="#7829A5" fill-rule="evenodd" stroke="none" />
    <path d="M0 4.32L1.39 0L4.87 0.489998C4.87 0.489998 7.52 1.74 9.47 2.65C11.42 3.56 13.93 4.25 13.93 4.25L8.98 8.43C8.98 8.43 6.28001 7.41 4.31001 6.55C2.09 5.58 7.62939e-06 4.32 7.62939e-06 4.32L0 4.32Z" transform="matrix(0.9999999 4.973799E-14 -4.973799E-14 0.9999999 65.54031 102.61975)" id="Shape" fill="#63198E" fill-rule="evenodd" stroke="none" />
    <path d="M48.1773 0C48.1773 0 38.5573 5.58 24.7673 18.63C12.3373 30.39 3.1273 41.03 0.897304 50.08C-0.962696 57.66 0.0273055 62.26 4.25731 67.23C8.72731 72.49 13.9673 75.1 13.9673 75.1C13.9673 75.1 17.9073 75.16 34.3473 62.51C54.8573 46.72 71.2873 20.28 71.2873 20.28L70.8178 19.868L48.1773 0L48.1773 0Z" transform="matrix(0.9999999 4.973799E-14 -4.973799E-14 0.9999999 33.693756 42.749634)" id="Shape" fill="#C272EF" fill-rule="evenodd" stroke="none" />
    <path d="M19.8088 37.3769C19.8088 37.3769 11.4388 33.8069 5.4688 25.4769C-0.461205 17.2069 0.00879669 11.6169 0.00879669 11.6169C0.00879669 11.6169 4.9688 7.72694 16.1188 3.27694C23.6188 0.286936 33.8288 -1.24306 37.1888 1.24694C40.5488 3.73694 34.8888 16.2269 34.8888 16.2269L24.5788 36.1869L19.8088 37.3769L19.8088 37.3769Z" transform="matrix(0.9999999 4.973799E-14 -4.973799E-14 0.9999999 81.92169 31.07306)" id="Shape" fill="#AA4FDE" fill-rule="evenodd" stroke="none" />
    <path d="M22.33 34.86C22.33 34.86 15.1 31.17 10.5 25.92C1.8 16.01 0 5.13 0 5.13L4.37 0C4.37 0 5.46 11.56 14.79 21.55C20.87 28.06 27.22 31.04 27.22 31.04C27.22 31.04 25.95 32.11 24.59 33.15C23.72 33.82 22.33 34.86 22.33 34.86L22.33 34.86Z" transform="matrix(0.9999999 4.973799E-14 -4.973799E-14 0.9999999 43.390137 72.15076)" id="Shape" fill="#AA4FDE" fill-rule="evenodd" stroke="none" />
    <path d="M8.78001 38.44C8.78001 38.44 13.12 33.21 17.23 21.42C22.97 4.98 17.97 0 17.97 0C17.97 0 16.28 7.82 10.41 18.69C5.7 27.4 0 35.69 0 35.69C0 35.69 3.14 37.1 4.84 37.59C6.98 38.21 8.78 38.44 8.78 38.44L8.78001 38.44Z" transform="matrix(0.9999999 4.973799E-14 -4.973799E-14 0.9999999 101.48038 32.649963)" id="Shape" fill="#7829A5" fill-rule="evenodd" stroke="none" />
    <path d="M0.502106 8.78541C1.80211 10.0254 3.77211 8.72541 5.06211 5.68541C6.36211 2.64541 6.34211 0.945412 5.34211 0.22541C4.1021 -0.674591 2.02211 1.29541 1.11211 3.04541C0.112106 4.98541 -0.477894 7.84541 0.502106 8.78541L0.502106 8.78541Z" transform="matrix(0.9999999 4.973799E-14 -4.973799E-14 0.9999999 36.8591 87.483215)" id="Shape" fill="#E1BFDE" fill-rule="evenodd" stroke="none" />
    <path d="M29.3674 0C29.3674 0 21.7574 5.47 13.6374 12.91C6.18738 19.74 1.24738 25.08 0.567379 26.32C-0.152622 27.65 -0.162621 29.53 0.397381 30.49C0.957382 31.45 2.19738 31.95 3.32738 31.11C4.45738 30.26 12.5074 21.36 19.7774 15C26.4274 9.18 31.5574 5.49 31.5574 5.49C31.5574 5.49 33.6374 1.81 33.2974 0.970001C32.9574 0.120001 29.3674 1.90735e-06 29.3674 1.90735e-06L29.3674 0Z" transform="matrix(0.9999999 4.973799E-14 -4.973799E-14 0.9999999 53.132996 46.7406)" id="Shape" fill="#E1BFDE" fill-rule="evenodd" stroke="none" />
    <path d="M0 11.2399C0 11.2399 5.62 6.92992 11.74 3.89992C17.43 1.07992 23.09 -1.27008 24.11 0.769916C25.08 2.70992 18.74 5.34992 13.16 8.90992C7.58 12.4699 2.21001 16.7199 2.21001 16.7199C2.21001 16.7199 1.39001 15.2199 0.860008 13.8299C0.523834 12.9838 0.236687 12.119 0 11.2399L0 11.2399Z" transform="matrix(0.9999999 4.973799E-14 -4.973799E-14 0.9999999 82.50009 35.50067)" id="Shape" fill="#E1BFDE" fill-rule="evenodd" stroke="none" />
    <path d="M19.8645 3.27457C14.2945 -1.85543 6.5445 -0.475433 2.7245 4.08457C-1.1955 8.78457 -0.905495 15.9646 3.7245 20.2846C7.9345 24.2046 15.7645 25.0946 20.4845 19.5946C24.6845 14.7146 24.4245 7.46457 19.8645 3.27457L19.8645 3.27457Z" transform="matrix(0.9999999 4.973799E-14 -4.973799E-14 0.9999999 67.27557 62.585938)" id="Shape" fill="#E1E1E1" fill-rule="evenodd" stroke="none" />
    <path d="M2.32643 2.57539C-0.983566 5.82539 -0.803566 12.2654 3.13643 15.2054C6.57643 17.7754 11.4564 17.6454 14.5164 14.5154C17.5764 11.3854 17.5764 5.69539 14.7064 2.75539C11.4064 -0.614605 6.11642 -1.14461 2.32643 2.57539L2.32643 2.57539Z" transform="matrix(0.9999999 4.973799E-14 -4.973799E-14 0.9999999 70.554535 65.90399)" id="Shape" fill="#3F545F" fill-rule="evenodd" stroke="none" />
    <path d="M26.8491 5.65149C26.8491 5.65149 33.0391 -0.62851 33.7191 0.0514908C34.3991 0.731491 34.3091 4.54149 31.3491 8.78149C28.3791 13.0215 21.8491 20.5715 16.6791 25.6615C11.5791 30.6715 4.38913 36.4015 3.70913 36.3015C3.17913 36.2215 1.02913 35.1515 0.16913 34.1115C-0.67087 33.0815 1.83913 28.2115 2.84913 26.6015C3.86913 24.9915 26.8491 5.65149 26.8491 5.65149L26.8491 5.65149Z" transform="matrix(0.9999999 4.973799E-14 -4.973799E-14 0.9999999 20.701996 97.847595)" id="Shape" fill="#9A3DCF" fill-rule="evenodd" stroke="none" />
    <path d="M0.00213051 31.0898C-0.0778694 32.5298 2.12213 34.6298 2.12213 34.6298L35.6421 0.539841C35.6421 0.539841 34.0721 -1.23016 29.4521 1.63984C24.7921 4.53984 20.7121 8.01984 14.6921 13.8498C6.30213 21.9898 0.0821285 29.6498 0.00213051 31.0898L0.00213051 31.0898Z" transform="matrix(0.9999999 4.973799E-14 -4.973799E-14 0.9999999 18.7789 97.36963)" id="Shape" fill="#C272EF" fill-rule="evenodd" stroke="none" />
    <path d="M0.841286 0.62764C-0.268715 1.73764 -0.318714 3.51764 0.921286 4.53764C2.02129 5.44764 3.81129 4.85764 4.48129 4.03764C5.15129 3.21764 5.07129 1.43764 4.18129 0.55764C3.29129 -0.332359 1.52129 -0.0423584 0.841286 0.62764L0.841286 0.62764Z" transform="matrix(0.9999999 4.973799E-14 -4.973799E-14 0.9999999 97.08655 -6.1035156E-05)" id="Shape" fill="#F7D74D" fill-rule="evenodd" stroke="none" />
    <path d="M0.515598 0.525822C-0.324402 1.45582 -0.0544014 2.83582 0.725597 3.34582C1.5056 3.85582 2.6756 3.80582 3.2456 3.10582C3.7556 2.47582 3.8156 1.21582 3.0356 0.435818C2.3556 -0.23418 1.0556 -0.0741806 0.515598 0.525818L0.515598 0.525822Z" transform="matrix(0.9999999 4.973799E-14 -4.973799E-14 0.9999999 38.054962 61.734802)" id="Shape" fill="#F7D74D" fill-opacity="0.5" fill-rule="evenodd" stroke="none" />
    <path d="M3.93618 3.52034C3.93618 3.52034 5.15619 0.0403376 5.87618 0.000338554C6.60618 -0.0396614 7.65618 3.48034 7.65618 3.48034C7.65618 3.48034 11.2662 3.52034 11.5062 4.05034C11.8162 4.73034 9.19618 7.01034 9.19618 7.01034C9.19618 7.01034 10.0462 10.4103 9.64618 10.8203C9.19618 11.2703 6.08618 9.48034 6.08618 9.48034C6.08618 9.48034 2.88618 11.7103 2.19618 11.1003C1.59618 10.5703 2.84618 6.97034 2.84618 6.97034C2.84618 6.97034 -0.15382 4.78034 0.00617981 4.17034C0.236179 3.31034 3.93618 3.52034 3.93618 3.52034L3.93618 3.52034Z" transform="matrix(0.9999999 4.973799E-14 -4.973799E-14 0.9999999 49.164795 34.979248)" id="Shape" fill="#F7D74D" fill-rule="evenodd" stroke="none" />
    <path d="M1.06031 4.01347C2.27031 4.68347 3.79031 4.30347 4.35031 3.01347C4.86031 1.86347 3.92031 0.493477 3.07031 0.123474C2.22031 -0.246529 0.730316 0.243477 0.190315 1.21347C-0.339684 2.17347 0.330315 3.61347 1.06032 4.01347L1.06031 4.01347Z" transform="matrix(0.9999999 4.973799E-14 -4.973799E-14 0.9999999 93.500336 117.924866)" id="Shape" fill="#F7D74D" fill-rule="evenodd" stroke="none" />
    <path d="M3.79141 1.04321C3.10141 -0.0267944 1.61141 -0.376793 0.641411 0.483208C-0.298592 1.3232 -0.0685883 2.64321 0.461411 3.31321C0.991409 3.98321 2.41141 4.23321 3.27141 3.68321C4.13141 3.13322 4.21141 1.68321 3.7914 1.04321L3.79141 1.04321Z" transform="matrix(0.9999999 4.973799E-14 -4.973799E-14 0.9999999 107.94861 91.40686)" id="Shape" fill="#F7D74D" fill-rule="evenodd" stroke="none" />
  </g>
  <path d="M1 0L1 92" transform="translate(138.9495 215.97723)" id="Line" fill="none" fill-rule="evenodd" stroke="#FFFFFF" stroke-opacity="0.10980392" stroke-width="3" stroke-linecap="square" />
  <path d="M1 0L0 50" transform="translate(139.9495 161.97723)" id="Line-Copy" fill="none" fill-rule="evenodd" stroke="#000000" stroke-opacity="0.10980392" stroke-width="3" stroke-linecap="square" />
  <path d="M0 20C0 8.9543 8.9543 0 20 0C31.0457 0 40 8.9543 40 20C40 31.0457 31.0457 40 20 40C8.9543 40 0 31.0457 0 20Z" transform="translate(199.9495 249.97723)" id="Ellipse" fill="#32A4F1" fill-rule="evenodd" stroke="none" filter="url(#filter_1)" />
  <g id="Update-Icon" transform="translate(212.9495 260.97723)">
    <path d="M7.5 0L15 7.80957L0 7.80957L7.5 0Z" id="Triangle" fill="#FFFFFF" fill-rule="evenodd" stroke="none" />
    <path d="M0 0L7.7027 0L7.7027 8.381L0 8.381L0 0Z" transform="translate(3.8513489 7.6190796)" id="Rectangle-4" fill="#FFFFFF" fill-rule="evenodd" stroke="none" />
  </g>
  <g id="Credit-Card" transform="matrix(0.9702958 -0.24192171 0.24192171 0.9702958 0 120.81152)">
    <path d="M5.999 0L62.001 0Q62.1483 0 62.2954 0.00722606Q62.4424 0.0144521 62.589 0.0288868Q62.7356 0.0433215 62.8812 0.0649301Q63.0269 0.0865387 63.1713 0.115269Q63.3158 0.143999 63.4586 0.179782Q63.6015 0.215565 63.7424 0.258315Q63.8833 0.301064 64.022 0.350677Q64.1607 0.40029 64.2967 0.456647Q64.4328 0.513003 64.5659 0.575968Q64.699 0.638933 64.8289 0.708354Q64.9588 0.777776 65.0851 0.853486Q65.2114 0.929196 65.3339 1.01101Q65.4563 1.09283 65.5746 1.18056Q65.6929 1.26828 65.8067 1.36171Q65.9206 1.45514 66.0297 1.55403Q66.1388 1.65293 66.2429 1.75707Q66.3471 1.8612 66.446 1.97032Q66.5449 2.07944 66.6383 2.19327Q66.7317 2.30711 66.8194 2.4254Q66.9072 2.54369 66.989 2.66613Q67.0708 2.78858 67.1465 2.9149Q67.2222 3.04121 67.2916 3.17109Q67.3611 3.30097 67.424 3.4341Q67.487 3.56722 67.5433 3.70328Q67.5997 3.83934 67.6493 3.978Q67.6989 4.11666 67.7417 4.25758Q67.7844 4.39851 67.8202 4.54136Q67.856 4.68422 67.8847 4.82865Q67.9135 4.97309 67.9351 5.11876Q67.9567 5.26444 67.9711 5.411Q67.9855 5.55755 67.9928 5.70464Q68 5.85173 68 5.999L68 35.001Q68 35.1483 67.9928 35.2954Q67.9855 35.4424 67.9711 35.589Q67.9567 35.7356 67.9351 35.8812Q67.9135 36.0269 67.8847 36.1714Q67.856 36.3158 67.8202 36.4586Q67.7844 36.6015 67.7417 36.7424Q67.6989 36.8834 67.6493 37.022Q67.5997 37.1607 67.5433 37.2967Q67.487 37.4328 67.424 37.5659Q67.3611 37.699 67.2916 37.8289Q67.2222 37.9588 67.1465 38.0851Q67.0708 38.2114 66.989 38.3339Q66.9072 38.4563 66.8194 38.5746Q66.7317 38.6929 66.6383 38.8067Q66.5449 38.9206 66.446 39.0297Q66.3471 39.1388 66.2429 39.2429Q66.1388 39.3471 66.0297 39.446Q65.9206 39.5449 65.8067 39.6383Q65.6929 39.7317 65.5746 39.8194Q65.4563 39.9072 65.3339 39.989Q65.2114 40.0708 65.0851 40.1465Q64.9588 40.2222 64.8289 40.2917Q64.699 40.3611 64.5659 40.424Q64.4328 40.487 64.2967 40.5434Q64.1607 40.5997 64.022 40.6493Q63.8833 40.6989 63.7424 40.7417Q63.6015 40.7844 63.4586 40.8202Q63.3158 40.856 63.1713 40.8847Q63.0269 40.9135 62.8812 40.9351Q62.7356 40.9567 62.589 40.9711Q62.4424 40.9856 62.2954 40.9928Q62.1483 41 62.001 41L5.999 41Q5.85173 41 5.70464 40.9928Q5.55755 40.9856 5.411 40.9711Q5.26444 40.9567 5.11876 40.9351Q4.97309 40.9135 4.82865 40.8847Q4.68422 40.856 4.54136 40.8202Q4.39851 40.7844 4.25758 40.7417Q4.11666 40.6989 3.978 40.6493Q3.83934 40.5997 3.70328 40.5434Q3.56722 40.487 3.4341 40.424Q3.30097 40.3611 3.17109 40.2917Q3.04121 40.2222 2.9149 40.1465Q2.78858 40.0708 2.66613 39.989Q2.54369 39.9072 2.4254 39.8194Q2.30711 39.7317 2.19327 39.6383Q2.07944 39.5449 1.97032 39.446Q1.8612 39.3471 1.75707 39.2429Q1.65293 39.1388 1.55403 39.0297Q1.45514 38.9206 1.36171 38.8067Q1.26829 38.6929 1.18056 38.5746Q1.09283 38.4563 1.01101 38.3339Q0.929196 38.2114 0.853486 38.0851Q0.777776 37.9588 0.708354 37.8289Q0.638933 37.699 0.575968 37.5659Q0.513003 37.4328 0.456647 37.2967Q0.40029 37.1607 0.350677 37.022Q0.301064 36.8834 0.258315 36.7424Q0.215565 36.6015 0.179782 36.4586Q0.143999 36.3158 0.115269 36.1714Q0.0865387 36.0269 0.0649301 35.8812Q0.0433215 35.7356 0.0288868 35.589Q0.0144521 35.4424 0.00722606 35.2954Q0 35.1483 0 35.001L0 5.999Q0 5.85173 0.00722606 5.70464Q0.0144521 5.55755 0.0288868 5.411Q0.0433215 5.26444 0.0649301 5.11876Q0.0865387 4.97309 0.115269 4.82865Q0.143999 4.68422 0.179782 4.54136Q0.215565 4.39851 0.258315 4.25758Q0.301064 4.11666 0.350677 3.978Q0.40029 3.83934 0.456647 3.70328Q0.513003 3.56722 0.575968 3.4341Q0.638933 3.30097 0.708354 3.17109Q0.777776 3.04121 0.853486 2.9149Q0.929196 2.78858 1.01101 2.66613Q1.09283 2.54369 1.18056 2.4254Q1.26828 2.30711 1.36171 2.19327Q1.45514 2.07944 1.55403 1.97032Q1.65293 1.8612 1.75707 1.75707Q1.8612 1.65293 1.97032 1.55403Q2.07944 1.45514 2.19327 1.36171Q2.30711 1.26829 2.4254 1.18056Q2.54369 1.09283 2.66613 1.01101Q2.78858 0.929196 2.9149 0.853486Q3.04121 0.777776 3.17109 0.708354Q3.30097 0.638933 3.4341 0.575968Q3.56722 0.513003 3.70328 0.456647Q3.83934 0.40029 3.978 0.350677Q4.11666 0.301064 4.25758 0.258315Q4.39851 0.215565 4.54136 0.179782Q4.68422 0.143999 4.82865 0.115269Q4.97309 0.0865387 5.11876 0.0649301Q5.26444 0.0433215 5.411 0.0288868Q5.55755 0.0144521 5.70464 0.00722606Q5.85173 0 5.999 0Z" id="Rectangle-4" fill="#C272EF" fill-rule="evenodd" stroke="none" />
    <path d="M2.11969 0L14.547 0Q14.6511 0 14.7547 0.0102069Q14.8584 0.0204138 14.9605 0.0407292Q15.0626 0.0610447 15.1623 0.0912731Q15.2619 0.121502 15.3581 0.161352Q15.4544 0.201202 15.5462 0.25029Q15.638 0.299379 15.7246 0.357232Q15.8112 0.415086 15.8917 0.481147Q15.9722 0.547209 16.0458 0.620843Q16.1195 0.694476 16.1855 0.774973Q16.2516 0.855469 16.3094 0.942053Q16.3673 1.02864 16.4164 1.12047Q16.4655 1.21231 16.5053 1.30852Q16.5452 1.40473 16.5754 1.50438Q16.6056 1.60403 16.6259 1.70616Q16.6462 1.80829 16.6565 1.91192Q16.6667 2.01556 16.6667 2.11969L16.6667 2.12169Q16.6667 2.22582 16.6565 2.32946Q16.6462 2.43309 16.6259 2.53522Q16.6056 2.63735 16.5754 2.737Q16.5452 2.83665 16.5053 2.93286Q16.4655 3.02907 16.4164 3.1209Q16.3673 3.21274 16.3094 3.29933Q16.2516 3.38591 16.1855 3.46641Q16.1195 3.5469 16.0458 3.62054Q15.9722 3.69417 15.8917 3.76023Q15.8112 3.82629 15.7246 3.88415Q15.638 3.942 15.5462 3.99109Q15.4544 4.04018 15.3581 4.08003Q15.2619 4.11988 15.1623 4.15011Q15.0626 4.18034 14.9605 4.20065Q14.8584 4.22097 14.7547 4.23117Q14.6511 4.24138 14.547 4.24138L2.11969 4.24138Q2.01556 4.24138 1.91192 4.23117Q1.80829 4.22097 1.70616 4.20065Q1.60403 4.18034 1.50438 4.15011Q1.40473 4.11988 1.30852 4.08003Q1.21231 4.04018 1.12048 3.99109Q1.02864 3.942 0.942053 3.88415Q0.855469 3.82629 0.774973 3.76023Q0.694476 3.69417 0.620843 3.62054Q0.547209 3.5469 0.481147 3.46641Q0.415086 3.38591 0.357232 3.29933Q0.299379 3.21274 0.25029 3.1209Q0.201202 3.02907 0.161352 2.93286Q0.121502 2.83665 0.0912731 2.737Q0.0610447 2.63735 0.0407292 2.53522Q0.0204138 2.43309 0.0102069 2.32946Q0 2.22582 0 2.12169L0 2.11969Q0 2.01556 0.0102069 1.91192Q0.0204138 1.80829 0.0407292 1.70616Q0.0610447 1.60403 0.0912731 1.50438Q0.121502 1.40473 0.161352 1.30852Q0.201202 1.21231 0.25029 1.12048Q0.299379 1.02864 0.357232 0.942053Q0.415086 0.855469 0.481147 0.774973Q0.547209 0.694476 0.620843 0.620843Q0.694476 0.547209 0.774973 0.481147Q0.855469 0.415086 0.942053 0.357232Q1.02864 0.299379 1.12047 0.25029Q1.21231 0.201202 1.30852 0.161352Q1.40473 0.121502 1.50438 0.0912731Q1.60403 0.0610447 1.70616 0.0407292Q1.80829 0.0204138 1.91192 0.0102069Q2.01556 0 2.11969 0L2.11969 0Z" transform="translate(8.000015 7.776062)" id="Rectangle-5" fill="#FFFFFF" fill-rule="evenodd" stroke="none" />
    <path d="M2.11969 0L14.547 0Q14.6511 0 14.7547 0.0102069Q14.8584 0.0204138 14.9605 0.0407292Q15.0626 0.0610447 15.1623 0.0912731Q15.2619 0.121502 15.3581 0.161352Q15.4544 0.201202 15.5462 0.25029Q15.638 0.299378 15.7246 0.357232Q15.8112 0.415086 15.8917 0.481147Q15.9722 0.547209 16.0458 0.620843Q16.1195 0.694476 16.1855 0.774973Q16.2516 0.855469 16.3094 0.942053Q16.3673 1.02864 16.4164 1.12047Q16.4655 1.21231 16.5053 1.30852Q16.5452 1.40473 16.5754 1.50438Q16.6056 1.60403 16.6259 1.70616Q16.6462 1.80829 16.6565 1.91192Q16.6667 2.01556 16.6667 2.11969L16.6667 2.12169Q16.6667 2.22582 16.6565 2.32945Q16.6462 2.43309 16.6259 2.53522Q16.6056 2.63735 16.5754 2.737Q16.5452 2.83665 16.5053 2.93286Q16.4655 3.02907 16.4164 3.1209Q16.3673 3.21274 16.3094 3.29933Q16.2516 3.38591 16.1855 3.46641Q16.1195 3.5469 16.0458 3.62054Q15.9722 3.69417 15.8917 3.76023Q15.8112 3.82629 15.7246 3.88415Q15.638 3.942 15.5462 3.99109Q15.4544 4.04018 15.3581 4.08003Q15.2619 4.11988 15.1623 4.15011Q15.0626 4.18033 14.9605 4.20065Q14.8584 4.22096 14.7547 4.23117Q14.6511 4.24138 14.547 4.24138L2.11969 4.24138Q2.01556 4.24138 1.91192 4.23117Q1.80829 4.22096 1.70616 4.20065Q1.60403 4.18033 1.50438 4.15011Q1.40473 4.11988 1.30852 4.08003Q1.21231 4.04018 1.12047 3.99109Q1.02864 3.942 0.942053 3.88415Q0.855469 3.82629 0.774973 3.76023Q0.694476 3.69417 0.620843 3.62054Q0.547209 3.5469 0.481147 3.46641Q0.415086 3.38591 0.357232 3.29933Q0.299378 3.21274 0.25029 3.1209Q0.201202 3.02907 0.161352 2.93286Q0.121502 2.83665 0.0912731 2.737Q0.0610447 2.63735 0.0407292 2.53522Q0.0204138 2.43309 0.0102069 2.32945Q0 2.22582 0 2.12169L0 2.11969Q0 2.01556 0.0102069 1.91192Q0.0204138 1.80829 0.0407292 1.70616Q0.0610447 1.60403 0.0912731 1.50438Q0.121502 1.40473 0.161352 1.30852Q0.201202 1.21231 0.25029 1.12047Q0.299378 1.02864 0.357232 0.942053Q0.415086 0.855469 0.481147 0.774973Q0.547209 0.694476 0.620843 0.620843Q0.694476 0.547209 0.774973 0.481147Q0.855469 0.415086 0.942053 0.357232Q1.02864 0.299378 1.12047 0.25029Q1.21231 0.201202 1.30852 0.161352Q1.40473 0.121502 1.50438 0.0912731Q1.60403 0.0610447 1.70616 0.0407292Q1.80829 0.0204138 1.91192 0.0102069Q2.01556 0 2.11969 0L2.11969 0Z" transform="translate(44.00007 29.689636)" id="Rectangle-5-Copy" fill="#FFFFFF" fill-rule="evenodd" stroke="none" />
    <g id="Group-2" transform="translate(8.333321 18.379272)">
      <path d="M2.11969 0L8.21364 0Q8.31778 0 8.42141 0.0102069Q8.52504 0.0204138 8.62717 0.0407292Q8.72931 0.0610447 8.82895 0.0912731Q8.9286 0.121502 9.02481 0.161352Q9.12102 0.201202 9.21286 0.25029Q9.30469 0.299378 9.39128 0.357232Q9.47786 0.415086 9.55836 0.481147Q9.63885 0.547209 9.71249 0.620843Q9.78612 0.694476 9.85218 0.774973Q9.91825 0.855469 9.9761 0.942053Q10.034 1.02864 10.083 1.12047Q10.1321 1.21231 10.172 1.30852Q10.2118 1.40473 10.2421 1.50438Q10.2723 1.60403 10.2926 1.70616Q10.3129 1.80829 10.3231 1.91192Q10.3333 2.01556 10.3333 2.11969L10.3333 2.12169Q10.3333 2.22582 10.3231 2.32945Q10.3129 2.43309 10.2926 2.53522Q10.2723 2.63735 10.2421 2.737Q10.2118 2.83665 10.172 2.93286Q10.1321 3.02907 10.083 3.1209Q10.034 3.21274 9.9761 3.29933Q9.91825 3.38591 9.85218 3.46641Q9.78612 3.5469 9.71249 3.62054Q9.63885 3.69417 9.55836 3.76023Q9.47786 3.82629 9.39128 3.88415Q9.30469 3.942 9.21286 3.99109Q9.12102 4.04018 9.02481 4.08003Q8.9286 4.11988 8.82895 4.15011Q8.72931 4.18033 8.62717 4.20065Q8.52504 4.22096 8.42141 4.23117Q8.31778 4.24138 8.21364 4.24138L2.11969 4.24138Q2.01556 4.24138 1.91192 4.23117Q1.80829 4.22096 1.70616 4.20065Q1.60403 4.18033 1.50438 4.15011Q1.40473 4.11988 1.30852 4.08003Q1.21231 4.04018 1.12047 3.99109Q1.02864 3.942 0.942053 3.88415Q0.855469 3.82629 0.774973 3.76023Q0.694476 3.69417 0.620843 3.62054Q0.547209 3.5469 0.481147 3.46641Q0.415086 3.38591 0.357232 3.29933Q0.299378 3.21274 0.25029 3.1209Q0.201202 3.02907 0.161352 2.93286Q0.121502 2.83665 0.0912731 2.737Q0.0610447 2.63735 0.0407292 2.53522Q0.0204138 2.43309 0.0102069 2.32945Q0 2.22582 0 2.12169L0 2.11969Q0 2.01556 0.0102069 1.91192Q0.0204138 1.80829 0.0407292 1.70616Q0.0610447 1.60403 0.0912731 1.50438Q0.121502 1.40473 0.161352 1.30852Q0.201202 1.21231 0.25029 1.12047Q0.299378 1.02864 0.357232 0.942053Q0.415086 0.855469 0.481147 0.774973Q0.547209 0.694476 0.620843 0.620843Q0.694476 0.547209 0.774973 0.481147Q0.855469 0.415086 0.942053 0.357232Q1.02864 0.299378 1.12047 0.25029Q1.21231 0.201202 1.30852 0.161352Q1.40473 0.121502 1.50438 0.0912731Q1.60403 0.0610447 1.70616 0.0407292Q1.80829 0.0204138 1.91192 0.0102069Q2.01556 0 2.11969 0Z" id="Rectangle-5-Copy" fill="#351B5C" fill-rule="evenodd" stroke="none" />
      <path d="M2.11969 0L7.54698 0Q7.65111 0 7.75474 0.0102069Q7.85837 0.0204138 7.96051 0.0407292Q8.06264 0.0610447 8.16229 0.0912731Q8.26194 0.121502 8.35815 0.161352Q8.45435 0.201202 8.54619 0.25029Q8.63803 0.299378 8.72461 0.357232Q8.8112 0.415086 8.89169 0.481147Q8.97219 0.547209 9.04582 0.620843Q9.11946 0.694476 9.18552 0.774973Q9.25158 0.855469 9.30943 0.942053Q9.36729 1.02864 9.41638 1.12047Q9.46546 1.21231 9.50531 1.30852Q9.54516 1.40473 9.57539 1.50438Q9.60562 1.60403 9.62594 1.70616Q9.64625 1.80829 9.65646 1.91192Q9.66667 2.01556 9.66667 2.11969L9.66667 2.12169Q9.66667 2.22582 9.65646 2.32945Q9.64625 2.43309 9.62594 2.53522Q9.60562 2.63735 9.57539 2.737Q9.54516 2.83665 9.50531 2.93286Q9.46546 3.02907 9.41638 3.1209Q9.36729 3.21274 9.30943 3.29933Q9.25158 3.38591 9.18552 3.46641Q9.11946 3.5469 9.04582 3.62054Q8.97219 3.69417 8.89169 3.76023Q8.8112 3.82629 8.72461 3.88415Q8.63803 3.942 8.54619 3.99109Q8.45435 4.04018 8.35815 4.08003Q8.26194 4.11988 8.16229 4.15011Q8.06264 4.18033 7.96051 4.20065Q7.85837 4.22096 7.75474 4.23117Q7.65111 4.24138 7.54698 4.24138L2.11969 4.24138Q2.01556 4.24138 1.91192 4.23117Q1.80829 4.22096 1.70616 4.20065Q1.60403 4.18033 1.50438 4.15011Q1.40473 4.11988 1.30852 4.08003Q1.21231 4.04018 1.12047 3.99109Q1.02864 3.942 0.942053 3.88415Q0.855469 3.82629 0.774973 3.76023Q0.694476 3.69417 0.620843 3.62054Q0.547209 3.5469 0.481147 3.46641Q0.415086 3.38591 0.357232 3.29933Q0.299378 3.21274 0.25029 3.1209Q0.201202 3.02907 0.161352 2.93286Q0.121502 2.83665 0.0912731 2.737Q0.0610447 2.63735 0.0407292 2.53522Q0.0204138 2.43309 0.0102069 2.32945Q0 2.22582 0 2.12169L0 2.11969Q0 2.01556 0.0102069 1.91192Q0.0204138 1.80829 0.0407292 1.70616Q0.0610447 1.60403 0.0912731 1.50438Q0.121502 1.40473 0.161352 1.30852Q0.201202 1.21231 0.25029 1.12047Q0.299378 1.02864 0.357232 0.942053Q0.415086 0.855469 0.481147 0.774973Q0.547209 0.694476 0.620843 0.620843Q0.694476 0.547209 0.774973 0.481147Q0.855469 0.415086 0.942053 0.357232Q1.02864 0.299378 1.12047 0.25029Q1.21231 0.201202 1.30852 0.161352Q1.40473 0.121502 1.50438 0.0912731Q1.60403 0.0610447 1.70616 0.0407292Q1.80829 0.0204138 1.91192 0.0102069Q2.01556 0 2.11969 0L2.11969 0Z" transform="translate(14.666641 0.00048828125)" id="Rectangle-5-Copy-2" fill="#351B5C" fill-rule="evenodd" stroke="none" />
      <path d="M2.11969 0L7.54698 0Q7.65111 0 7.75474 0.0102069Q7.85837 0.0204138 7.96051 0.0407292Q8.06264 0.0610447 8.16229 0.0912731Q8.26194 0.121502 8.35815 0.161352Q8.45435 0.201202 8.54619 0.25029Q8.63803 0.299378 8.72461 0.357232Q8.8112 0.415086 8.89169 0.481147Q8.97219 0.547209 9.04582 0.620843Q9.11946 0.694476 9.18552 0.774973Q9.25158 0.855469 9.30943 0.942053Q9.36729 1.02864 9.41638 1.12047Q9.46546 1.21231 9.50531 1.30852Q9.54516 1.40473 9.57539 1.50438Q9.60562 1.60403 9.62594 1.70616Q9.64625 1.80829 9.65646 1.91192Q9.66667 2.01556 9.66667 2.11969L9.66667 2.12169Q9.66667 2.22582 9.65646 2.32945Q9.64625 2.43309 9.62594 2.53522Q9.60562 2.63735 9.57539 2.737Q9.54516 2.83665 9.50531 2.93286Q9.46546 3.02907 9.41638 3.1209Q9.36729 3.21274 9.30943 3.29933Q9.25158 3.38591 9.18552 3.46641Q9.11946 3.5469 9.04582 3.62054Q8.97219 3.69417 8.89169 3.76023Q8.8112 3.82629 8.72461 3.88415Q8.63803 3.942 8.54619 3.99109Q8.45435 4.04018 8.35815 4.08003Q8.26194 4.11988 8.16229 4.15011Q8.06264 4.18033 7.96051 4.20065Q7.85837 4.22096 7.75474 4.23117Q7.65111 4.24138 7.54698 4.24138L2.11969 4.24138Q2.01556 4.24138 1.91192 4.23117Q1.80829 4.22096 1.70616 4.20065Q1.60403 4.18033 1.50438 4.15011Q1.40473 4.11988 1.30852 4.08003Q1.21231 4.04018 1.12047 3.99109Q1.02864 3.942 0.942053 3.88415Q0.855469 3.82629 0.774973 3.76023Q0.694476 3.69417 0.620843 3.62054Q0.547209 3.5469 0.481147 3.46641Q0.415086 3.38591 0.357232 3.29933Q0.299378 3.21274 0.25029 3.1209Q0.201202 3.02907 0.161352 2.93286Q0.121502 2.83665 0.0912731 2.737Q0.0610447 2.63735 0.0407292 2.53522Q0.0204138 2.43309 0.0102069 2.32945Q0 2.22582 0 2.12169L0 2.11969Q0 2.01556 0.0102069 1.91192Q0.0204138 1.80829 0.0407292 1.70616Q0.0610447 1.60403 0.0912731 1.50438Q0.121502 1.40473 0.161352 1.30852Q0.201202 1.21231 0.25029 1.12047Q0.299378 1.02864 0.357232 0.942053Q0.415086 0.855469 0.481147 0.774973Q0.547209 0.694476 0.620843 0.620843Q0.694476 0.547209 0.774973 0.481147Q0.855469 0.415086 0.942053 0.357232Q1.02864 0.299378 1.12047 0.25029Q1.21231 0.201202 1.30852 0.161352Q1.40473 0.121502 1.50438 0.0912731Q1.60403 0.0610447 1.70616 0.0407292Q1.80829 0.0204138 1.91192 0.0102069Q2.01556 0 2.11969 0L2.11969 0Z" transform="translate(29.000008 6.1035156E-05)" id="Rectangle-5-Copy-3" fill="#351B5C" fill-rule="evenodd" stroke="none" />
      <path d="M2.11969 0L6.88031 0Q6.98444 0 7.08808 0.0102069Q7.19171 0.0204138 7.29384 0.0407292Q7.39597 0.0610447 7.49562 0.0912731Q7.59527 0.121502 7.69148 0.161352Q7.78769 0.201202 7.87952 0.25029Q7.97136 0.299378 8.05795 0.357232Q8.14453 0.415086 8.22503 0.481147Q8.30552 0.547209 8.37916 0.620843Q8.45279 0.694476 8.51885 0.774973Q8.58491 0.855469 8.64277 0.942053Q8.70062 1.02864 8.74971 1.12047Q8.7988 1.21231 8.83865 1.30852Q8.8785 1.40473 8.90873 1.50438Q8.93896 1.60403 8.95927 1.70616Q8.97959 1.80829 8.98979 1.91192Q9 2.01556 9 2.11969L9 2.12169Q9 2.22582 8.98979 2.32945Q8.97959 2.43309 8.95927 2.53522Q8.93896 2.63735 8.90873 2.737Q8.8785 2.83665 8.83865 2.93286Q8.7988 3.02907 8.74971 3.1209Q8.70062 3.21274 8.64277 3.29933Q8.58491 3.38591 8.51885 3.46641Q8.45279 3.5469 8.37916 3.62054Q8.30552 3.69417 8.22503 3.76023Q8.14453 3.82629 8.05795 3.88415Q7.97136 3.942 7.87952 3.99109Q7.78769 4.04018 7.69148 4.08003Q7.59527 4.11988 7.49562 4.15011Q7.39597 4.18033 7.29384 4.20065Q7.19171 4.22096 7.08808 4.23117Q6.98444 4.24138 6.88031 4.24138L2.11969 4.24138Q2.01556 4.24138 1.91192 4.23117Q1.80829 4.22096 1.70616 4.20065Q1.60403 4.18033 1.50438 4.15011Q1.40473 4.11988 1.30852 4.08003Q1.21231 4.04018 1.12047 3.99109Q1.02864 3.942 0.942053 3.88415Q0.855469 3.82629 0.774973 3.76023Q0.694476 3.69417 0.620843 3.62054Q0.547209 3.5469 0.481147 3.46641Q0.415086 3.38591 0.357232 3.29933Q0.299378 3.21274 0.25029 3.1209Q0.201202 3.02907 0.161352 2.93286Q0.121502 2.83665 0.0912731 2.737Q0.0610447 2.63735 0.0407292 2.53522Q0.0204138 2.43309 0.0102069 2.32945Q0 2.22582 0 2.12169L0 2.11969Q0 2.01556 0.0102069 1.91192Q0.0204138 1.80829 0.0407292 1.70616Q0.0610447 1.60403 0.0912731 1.50438Q0.121502 1.40473 0.161352 1.30852Q0.201202 1.21231 0.25029 1.12047Q0.299378 1.02864 0.357232 0.942053Q0.415086 0.855469 0.481147 0.774973Q0.547209 0.694476 0.620843 0.620843Q0.694476 0.547209 0.774973 0.481147Q0.855469 0.415086 0.942053 0.357232Q1.02864 0.299378 1.12047 0.25029Q1.21231 0.201202 1.30852 0.161352Q1.40473 0.121502 1.50438 0.0912731Q1.60403 0.0610447 1.70616 0.0407292Q1.80829 0.0204138 1.91192 0.0102069Q2.01556 0 2.11969 0Z" transform="translate(43.33333 6.1035156E-05)" id="Rectangle-5-Copy-4" fill="#351B5C" fill-rule="evenodd" stroke="none" />
    </g>
  </g>
  <g id="File" transform="matrix(0.9998477 0.017452393 -0.017452393 0.9998477 226.87448 94.97632)">
    <path d="M38.4565 0C38.4565 0 32.1576 10.7128 22.5435 19.1702C12.9293 27.6277 0 33.8298 0 33.8298C0 33.8298 3.97826 42.5692 11.9348 47.3618C19.8913 52.1543 31.8261 53.0001 31.8261 53.0001C31.8261 53.0001 41.7717 44.5426 49.0652 34.9575C56.3587 25.3724 61 14.6596 61 14.6596C61 14.6596 53.375 13.8138 47.7391 10.1489C42.1033 6.48405 38.4565 0 38.4565 0Z" transform="translate(0 6.1035156E-05)" id="New-shape-7" fill="#FFFFFF" fill-rule="evenodd" stroke="none" />
    <path d="M10.6087 0L0 14.6597L26.5217 27.0639L33.1521 14.6596C33.1521 14.6596 25.5272 13.8139 19.8913 10.149C14.2554 6.48406 10.6087 0 10.6087 0Z" transform="translate(27.8479 0.00030517578)" id="New-shape-7-Copy" fill="#32A4F1" fill-rule="evenodd" stroke="none" />
    <path d="M0 0L17.2391 7.89363" transform="translate(35.804382 11.276611)" id="Line-2" fill="none" fill-rule="evenodd" stroke="#FFFFFF" stroke-width="2" stroke-linecap="square" />
    <path d="M0 0L9.94565 5.63831" transform="translate(25.858734 23.681152)" id="Line-2-Copy" fill="none" fill-rule="evenodd" stroke="#CBC2C2" stroke-width="2" stroke-linecap="square" />
    <path d="M0 0L9.28261 6.76596" transform="translate(12.5979 34.95752)" id="Line-2-Copy-3" fill="none" fill-rule="evenodd" stroke="#828282" stroke-width="2" stroke-linecap="square" />
    <path d="M0 0L14.587 9.02136" transform="translate(23.869568 25.936157)" id="Line-2-Copy-2" fill="none" fill-rule="evenodd" stroke="#CBC2C2" stroke-width="2" stroke-linecap="square" />
  </g>
  <g id="File-2" transform="matrix(-0.9998477 -0.017452393 -0.017452393 0.9998477 78.8199 28.432251)">
    <path d="M29.6304 0C29.6304 0 24.7772 9.09576 17.3696 16.2766C9.96196 23.4575 0 28.7234 0 28.7234C0 28.7234 3.06522 36.1437 9.19565 40.2128C15.3261 44.282 24.5217 45.0001 24.5217 45.0001C24.5217 45.0001 32.1848 37.8192 37.8044 29.6809C43.4239 21.5426 47 12.4468 47 12.4468C47 12.4468 41.125 11.7287 36.7826 8.61703C32.4402 5.50533 29.6304 0 29.6304 0Z" id="New-shape-7" fill="#32A4F1" fill-rule="evenodd" stroke="none" />
    <path d="M0 0L13.2826 6.70214" transform="translate(27.587006 9.574829)" id="Line-2" fill="none" fill-rule="evenodd" stroke="#FFFFFF" stroke-width="2" stroke-linecap="square" />
    <path d="M0 0L7.66304 4.78724" transform="translate(19.923935 20.106995)" id="Line-2-Copy" fill="none" fill-rule="evenodd" stroke="#CBC2C2" stroke-width="2" stroke-linecap="square" />
    <path d="M0 0L7.15217 5.74469" transform="translate(9.706619 29.680908)" id="Line-2-Copy-3" fill="none" fill-rule="evenodd" stroke="#DED8D8" stroke-width="2" stroke-linecap="square" />
    <path d="M0 0L11.2391 7.65964" transform="translate(18.391296 22.021423)" id="Line-2-Copy-2" fill="none" fill-rule="evenodd" stroke="#CBC2C2" stroke-width="2" stroke-linecap="square" />
  </g>
  <g id="Note" transform="translate(190.9495 12.977478)">
    <path d="M32.1887 0L61.2241 20.0188C61.2241 20.0188 54.7839 27.7974 47.8241 37.4546C40.8644 47.1118 35.2335 60.7023 35.2335 60.7023L0 30.0446C0 30.0446 7.6122 28.3584 15.6594 20.8472C23.7065 13.3361 32.1887 0 32.1887 0Z" transform="translate(0.6931 10.540894)" id="New-shape-7-Copy" fill="#5F3AC6" fill-rule="evenodd" stroke="none" />
    <path d="M34.1931 0L67 23.2477C67 23.2477 57.2966 33.0957 49.9034 43.2665C42.5103 53.4374 37.4276 63.9311 37.4276 63.9311L0 31.6427C0 31.6427 8.08621 29.8668 16.6345 21.9561C25.1828 14.0455 34.1931 0 34.1931 0Z" transform="translate(0 2.145874)" id="New-shape-7" fill="#8863FC" fill-rule="evenodd" stroke="none" />
    <g id="Ok-icon" transform="matrix(0.37460282 0.92718536 -0.92718536 0.37460282 42.452637 18.900513)">
      <path d="M0 0L17.3301 0L17.3301 24.2169L0 24.2169L0 0Z" transform="matrix(1 -7.7592624E-08 7.7592624E-08 1 0 1.1444092E-05)" id="Background" fill="none" fill-rule="evenodd" stroke="none" />
      <g clip-path="url(#mask_1)">
        <path d="M8.54007 2.86102e-05C3.82481 2.86102e-05 0 5.34478 0 11.9338C0 18.5229 3.82481 23.8677 8.54007 23.8677C13.2553 23.8677 17.0801 18.5229 17.0801 11.9338C17.0801 5.34478 13.2553 2.86102e-05 8.54007 2.86102e-05L8.54007 2.86102e-05ZM13.0289 8.241L8.44902 17.6789C8.31363 17.9591 8.09753 18.1483 7.88402 18.1483C7.67052 18.1483 7.43619 17.9845 7.28518 17.7771L4.59818 14.0187C4.41592 13.764 4.41592 13.3456 4.59818 13.0909L5.26212 12.1632C5.44438 11.9085 5.7438 11.9085 5.92345 12.1632L7.67313 14.6045L11.4745 6.76747C11.6203 6.46912 11.9145 6.39271 12.128 6.59282L12.9065 7.33141C13.1174 7.53152 13.1747 7.94266 13.0289 8.241L13.0289 8.241Z" transform="matrix(1 -7.7592624E-08 7.7592624E-08 1 0.31481934 0.3493271)" id="Shape" fill="#FFFFFF" fill-opacity="0.6" fill-rule="evenodd" stroke="none" />
      </g>
    </g>
    <path d="M2.7651 0C1.23798 0 0 2.26752 0 5.06464C0 7.86176 1.50717 10.0008 3.03429 10.0008C3.789 10.0008 4.4231 9.32931 4.87146 8.31243C4.47655 9.01247 3.95333 9.43869 3.37942 9.43869C2.14924 9.43869 1.15198 7.48038 1.15198 5.06468C1.15198 2.64898 2.14924 0.690674 3.37942 0.690674C4.52785 0.690674 5.47328 2.39735 5.59387 4.58957C5.5944 4.54454 5.59467 4.49948 5.59467 4.45441C5.59467 1.65729 4.29222 0 2.7651 0Z" transform="matrix(0.6946588 0.7193394 -0.7193394 0.6946588 40.664032 0)" id="Ellipse-2-Difference" fill="#D3D3D3" fill-rule="evenodd" stroke="none" />
    <path d="M2.7651 0C1.23798 0 0 2.26752 0 5.06464C0 7.86176 1.50717 10.0008 3.03429 10.0008C3.78923 10.0008 4.42347 9.32891 4.87186 8.31152C4.47689 9.01204 3.95349 9.43859 3.37936 9.43859C2.14918 9.43859 1.15192 7.48028 1.15192 5.06459C1.15192 2.64889 2.14917 0.690582 3.37936 0.690582C4.52794 0.690582 5.47348 2.39774 5.59386 4.5904C5.5944 4.54509 5.59467 4.49976 5.59467 4.45441C5.59467 1.65729 4.29222 0 2.7651 0Z" transform="matrix(0.6946588 0.7193394 -0.7193394 0.6946588 47.133972 4.197632)" id="Ellipse-2-Difference-Copy" fill="#D3D3D3" fill-rule="evenodd" stroke="none" />
    <path d="M2.7651 0C1.23798 0 0 2.26752 0 5.06464C0 7.86176 1.50717 10.0008 3.03429 10.0008C3.78851 10.0008 4.42227 9.33018 4.87059 8.3144C4.4758 9.01327 3.95303 9.43869 3.37966 9.43869C2.14948 9.43869 1.15222 7.48038 1.15222 5.06468C1.15222 2.64898 2.14948 0.690674 3.37966 0.690674C4.52745 0.690674 5.47248 2.39546 5.59391 4.58593C5.59442 4.54211 5.59467 4.49827 5.59467 4.45442C5.59467 1.65729 4.29222 0 2.7651 0Z" transform="matrix(0.6946588 0.7193394 -0.7193394 0.6946588 54.06598 9.686707)" id="Ellipse-2-Difference-Copy-2" fill="#D3D3D3" fill-rule="evenodd" stroke="none" />
    <path d="M2.7651 0C1.23798 0 0 2.26752 0 5.06464C0 7.86177 1.50717 10.0008 3.0343 10.0008C3.78892 10.0008 4.42296 9.32947 4.87132 8.31278C4.47643 9.0126 3.95329 9.43866 3.37948 9.43866C2.1493 9.43866 1.15204 7.48035 1.15204 5.06465C1.15204 2.64895 2.1493 0.690643 3.37948 0.690643C4.52776 0.690643 5.4731 2.39686 5.59389 4.58866C5.59442 4.54393 5.59468 4.49918 5.59468 4.45442C5.59468 1.65729 4.29223 0 2.7651 0Z" transform="matrix(0.6946588 0.7193394 -0.7193394 0.6946588 61.75589 15.175842)" id="Ellipse-2-Difference-Copy-3" fill="#D3D3D3" fill-rule="evenodd" stroke="none" />
  </g>
</svg>